<?xml version="1.0" encoding="UTF-8" standalone="no"?>
<svg
   xmlns:dc="http://purl.org/dc/elements/1.1/"
   xmlns:cc="http://creativecommons.org/ns#"
   xmlns:rdf="http://www.w3.org/1999/02/22-rdf-syntax-ns#"
   xmlns:svg="http://www.w3.org/2000/svg"
   xmlns="http://www.w3.org/2000/svg"
   xmlns:sodipodi="http://sodipodi.sourceforge.net/DTD/sodipodi-0.dtd"
   xmlns:inkscape="http://www.inkscape.org/namespaces/inkscape"
   version="1.1"
   id="svg2"
   xml:space="preserve"
   width="3872"
   height="2346.6667"
   viewBox="0 0 3872 2346.6667"
   sodipodi:docname="5302.eps"><metadata
     id="metadata8"><rdf:RDF><cc:Work
         rdf:about=""><dc:format>image/svg+xml</dc:format><dc:type
           rdf:resource="http://purl.org/dc/dcmitype/StillImage" /></cc:Work></rdf:RDF></metadata><defs
     id="defs6" /><sodipodi:namedview
     pagecolor="#ffffff"
     bordercolor="#666666"
     borderopacity="1"
     objecttolerance="10"
     gridtolerance="10"
     guidetolerance="10"
     inkscape:pageopacity="0"
     inkscape:pageshadow="2"
     inkscape:window-width="640"
     inkscape:window-height="480"
     id="namedview4" /><g
     id="g10"
     inkscape:groupmode="layer"
     inkscape:label="ink_ext_XXXXXX"
     transform="matrix(1.3333333,0,0,-1.3333333,0,2346.6667)"><g
       id="g12"
       transform="scale(0.1)"><path
         d="M 29040,17600 H 0 V 0 h 29040 v 17600"
         style="fill:#ffffff;fill-opacity:1;fill-rule:nonzero;stroke:none"
         id="path14" /><path
         d="m 26512.4,1613.1 c -0.8,-5.9 -1.9,-11.8 -2.9,-17.8 l -5377.9,19.4 -8604.7,30.8 -3789.3,13.6 -816.69,2.9 -5435.29,19.3 c 0,0 -26.66,51.5 -70.79,147.5 -22.84,49.4 -50.2,111 -81.07,183.3 -94.75,222.4 -221.8,548.5 -344.33,950.9 -84.88,278.7 -167.64,593.9 -236.17,937.1 -3.95,19.6 -7.9,39.8 -11.71,59.8 -21.43,110.6 -41.17,223.8 -59.22,339.7 -6.63,42.9 -12.97,86.6 -19.17,130.3 -8.18,58.4 -15.79,117.3 -22.85,176.9 -15.79,131.9 -28.76,266.4 -38.49,403.3 -29.75,418.1 -29.18,858.3 16.78,1308.8 8.74,86.3 19.17,173.3 31.44,260.4 42.45,301.6 106.18,607.3 195.57,913.3 101.1,346.54 235.33,693.97 408.91,1037.17 229.41,453.88 527.76,900.56 909.44,1329.21 654.54,734.92 1289.75,1229.52 1897.46,1553.12 84.46,45.1 168.36,86.7 251.69,125.3 898.03,415.4 1731.91,469.7 2473.86,395.8 44.98,-4.3 89.67,-9.3 133.94,-14.6 74.73,-9 148.48,-19.3 221.24,-30.5 48.92,-7.4 97.43,-15.5 145.37,-23.7 824,-142.2 1511.11,-387.4 2015.88,-351.3 1141.1,81.6 1630.1,2257.4 4144.5,3495.8 354.7,174.7 749.8,330.8 1192.7,459.7 150.3,43.8 306.2,84.4 468,121.6 395.9,91 815.8,163 1247.5,212.7 146.8,17 295,31.3 444,43 169.8,13.2 340.8,23 512.4,29 338.2,11.9 678.1,9.3 1014.7,-9.4 492.1,-27 976.8,-88.3 1437.8,-188.7 124.1,-27.1 246.3,-56.9 366.6,-89.7 2059.9,-560.7 3516.1,-1977.5 2738.1,-4719.3 -9.9,-34.8 -20.1,-69.7 -30.8,-104.9 -118.5,-394.6 -282.8,-816.22 -497.6,-1266.02 -84.9,-177.93 -177.6,-360.39 -278.6,-547.36 C 21200.1,5500.8 26063.8,6506.8 26557,3122.8 c 62.3,-427.4 55,-924.5 -44.6,-1509.7"
         style="fill:#e5f2f3;fill-opacity:1;fill-rule:nonzero;stroke:none"
         id="path16" /><path
         d="m 23869.7,10873.2 c -64.3,-3 -127.5,10.2 -189.3,41.3 -301.3,152.2 -519.7,370.7 -695.7,598.3 -23.1,327.2 40.9,740.1 40.9,740.1 -40.4,-104.2 -198.8,-247.7 -314.3,-342.5 -245,382.4 -431.8,689.1 -776.6,611.4 -639.3,-144.1 -1434.5,52.3 -1658.6,705.8 143,252.7 399.6,416.6 399.6,416.6 -187.7,-18.4 -364.2,-92.4 -495.9,-163.6 -283.1,537.2 -973.5,690.8 -973.5,690.8 -31.7,8.8 -62.4,18.7 -92.2,29.7 1.9,388.2 99.9,754.3 99.9,754.3 -270.6,-141.1 -397.2,-369.5 -456.3,-544.5 -476.6,418.9 -493.8,1170.5 -445.2,1469.2 832.5,29.2 1676.4,-29.2 2452.5,-198.1 124.1,-26.9 246.3,-56.8 366.6,-89.6 2059.9,-560.8 3516.1,-1977.4 2738.1,-4719.2"
         style="fill:#c1e0e4;fill-opacity:1;fill-rule:nonzero;stroke:none"
         id="path18" /><path
         d="M 3883.65,2017.4 H 5014.37 V 8203.19 H 3883.65 V 2017.4"
         style="fill:#e1eef0;fill-opacity:1;fill-rule:nonzero;stroke:none"
         id="path20" /><path
         d="M 13255.9,3675.4 H 10811.6 V 8881.3 H 9985.58 V 5108.9 H 9384.35 V 8881.3 H 8558.34 V 5108.9 H 7303.44 V 6409.7 H 5651.41 V 2017.4 h 1254.9 397.13 1254.9 826.01 601.23 132.82 629.8 63.4 2444.3 704.4 426.3 V 8203.19 H 13255.9 V 3675.4"
         style="fill:#e1eef0;fill-opacity:1;fill-rule:nonzero;stroke:none"
         id="path22" /><path
         d="m 20183.8,3675.4 v 5205.9 h -977.4 V 5108.9 h -449.8 v 1593.3 h -826.1 V 5108.9 h -1254.9 v 1300.8 h -1652 V 2017.4 h 1254.9 397.1 1254.9 826.1 449.8 284.2 629.8 63.4 3148.7 v 1658 h -3148.7"
         style="fill:#e1eef0;fill-opacity:1;fill-rule:nonzero;stroke:none"
         id="path24" /><path
         d="M 7786.97,11933.2 V 6625.8 l -2725.55,4786.3 c 84.46,45.1 168.36,86.7 251.69,125.3 898.03,415.4 1731.91,469.7 2473.86,395.8"
         style="fill:#eeffff;fill-opacity:1;fill-rule:nonzero;stroke:none"
         id="path26" /><path
         d="M 9514.79,11600.3 14883.3,2119.7 H 12318 l -3759.62,6761.58 54.85,2920.82 901.56,-201.8"
         style="fill:#e7f7f7;fill-opacity:1;fill-rule:nonzero;stroke:none"
         id="path28" /><path
         d="m 26512.4,1613.1 h -2086.1 v 2191.4 h 1706.3 l 424.4,-681.7 c 62.3,-427.4 55,-924.5 -44.6,-1509.7"
         style="fill:#c5dadd;fill-opacity:1;fill-rule:nonzero;stroke:none"
         id="path30" /><path
         d="M 20673.1,10204.3 V 6858.5 l -5135.9,8610.1 c 150.3,43.8 306.2,84.4 468,121.6 395.9,91 815.8,163 1247.5,212.7 l 3420.4,-5598.6"
         style="fill:#eeffff;fill-opacity:1;fill-rule:nonzero;stroke:none"
         id="path32" /><path
         d="m 7301.07,2747 c -42.29,-630.5 -676.8,-912.9 -676.8,-912.9 H 2414.83 c -22.84,49.4 -50.2,110.9 -81.07,183.3 -357.02,837.9 -1170.45,3144.8 -488.15,5480.4 258.74,-117.8 586.57,-297.3 896.48,-552.7 C 2467.71,6707.3 2261,6368.5 2261,6368.5 c 331.21,217.4 600.95,279.7 789.32,287.1 240.13,-257.9 447.12,-572.5 570.77,-951.9 486.46,-1493.5 1459.22,-1339 2326.38,-1585.4 47.24,-13.4 93.48,-27.7 138.6,-42.5 -267.9,-205.7 -550.32,-541.4 -550.32,-541.4 539.46,245.5 932.72,272.5 1167.91,252 153.97,-101.3 281.44,-215.8 378.72,-341.8 -308.37,55.2 -796.7,-8.7 -908.65,-18.3 368.86,27.6 889.85,-184.6 1072.35,-277 45.27,-126.3 64.45,-260.8 54.99,-402.3"
         style="fill:#c7dfe2;fill-opacity:1;fill-rule:nonzero;stroke:none"
         id="path34" /><path
         d="m 21131.6,15592.4 c -120.3,32.8 -242.5,62.7 -366.6,89.6 V 2017.4 H 8737.6 8287.52 v 9852.3 c -119.29,20.5 -241.53,39 -366.61,54.2 V 2017.4 H 2333.76 c 90.66,-212.7 168.37,-366.6 168.37,-366.6 H 8737.6 v 0 h 12394 v 13941.6"
         style="fill:#c5dadd;fill-opacity:1;fill-rule:nonzero;stroke:none"
         id="path36" /><path
         d="m 26632,5850.7 c 0,0 -728,-541.4 -869.9,-508.5 -142,32.8 532,584.3 532,584.3 -253.6,122 -1042,45.5 -1042,45.5 0,0 -262.6,-846.8 -392.1,-780.1 -129.5,66.8 270.8,738 270.8,738 -282.5,17 -629,-192.7 -629,-192.7 -474.3,-374.6 31.2,-964.3 31.2,-964.3 0,0 -97.3,-291.5 -396.8,-556.9 0,0 -427.8,-316.4 -457.5,-881.6 l 77.6,-7 c 0,0 123.1,526.5 346.8,775.5 8.7,9 21.2,21.9 36.8,37.5 36.5,33.9 62.1,59.3 79.3,78.2 111.3,106.9 265.1,243.1 339.2,256.3 0,0 -3.7,13.6 -3.2,37.3 1,-12 2.1,-24.3 3.2,-37.3 25.4,-298 603.6,-558.3 959.3,-611.9 355.7,-53.5 245.7,92.7 123.2,309.5 -122.6,216.8 -510.5,313.9 -599,413.7 -88.4,99.8 94.5,100.1 308.8,2.2 214.4,-97.9 243.7,-358.9 587.5,-523.6 343.8,-164.6 861.2,405.9 861.2,405.9 -274,13.9 -665.3,311.5 -651.2,402.5 14.2,91.1 664.2,-157 775.3,-168.9 111.2,-11.9 364,126.3 403.1,573.9 39.1,447.6 -694.6,572.5 -694.6,572.5"
         style="fill:#599dad;fill-opacity:1;fill-rule:nonzero;stroke:none"
         id="path38" /><path
         d="m 22765.7,5514.6 c 0,0 804.1,450.2 428.9,1061.3 0,0 -300.2,375.2 -621.8,471.7 0,0 171.5,-911.3 0,-932.7 -171.6,-21.4 -118,1029.2 -118,1029.2 0,0 -846.9,407.4 -1179.2,375.2 0,0 525.3,-889.8 353.7,-868.3 -171.5,21.4 -761.1,921.9 -761.1,921.9 0,0 -868.4,160.85 -1007.8,-353.7 -139.4,-514.6 85.8,-771.9 214.4,-804.1 128.7,-32.2 954.2,-21.4 932.7,-128.7 -21.4,-107.2 -578.9,-278.7 -889.8,-182.2 0,0 343.1,-846.9 793.4,-804.1 450.2,42.9 589.6,321.7 868.3,343.1 278.8,21.4 482.5,-53.6 343.1,-128.6 -139.4,-75.1 -611.1,-24.6 -836.2,-216 -225.2,-191.4 -407.4,-309.4 10.7,-395.1 418.1,-85.8 1168.6,-32.2 1318.6,289.4 150.1,321.7 150.1,321.7 150.1,321.7"
         style="fill:#79c8cc;fill-opacity:1;fill-rule:nonzero;stroke:none"
         id="path40" /><path
         d="m 22980.2,4731.9 c -225.2,418.1 -214.5,782.7 -214.5,782.7 -257.3,814.7 -2508.6,1543.7 -2508.6,1543.7 2862.4,-1157.8 2358.5,-1865.4 2358.5,-1865.4 77.2,-45 192.8,-259.5 273.1,-424.2 11.5,-28 29.6,-66.7 56.4,-119.4 v 0 c 10.9,-23.8 19.7,-43.3 25.7,-56.8 147.4,-368.8 69.3,-1005.6 69.3,-1005.6 l 89.3,-24 c 198,641.8 -149.2,1169 -149.2,1169"
         style="fill:#6bb7bf;fill-opacity:1;fill-rule:nonzero;stroke:none"
         id="path42" /><path
         d="m 24044.9,6135.5 c 0,0 -1059.9,593.6 -565.2,1399.1 0,0 395.7,494.62 819.6,621.81 0,0 -226.1,-1201.21 0,-1229.51 226.1,-28.2 155.5,1356.69 155.5,1356.69 0,0 1116.4,537.02 1554.5,494.62 0,0 -692.5,-1172.95 -466.4,-1144.68 226.1,28.27 1003.4,1215.35 1003.4,1215.35 0,0 1144.7,211.98 1328.4,-466.36 183.7,-678.34 -113.1,-1017.52 -282.6,-1059.92 -169.6,-42.4 -1257.8,-28.2 -1229.5,-169.6 28.2,-141.3 763.1,-367.4 1172.9,-240.2 0,0 -452.2,-1116.4 -1045.7,-1059.9 -593.6,56.5 -777.3,424 -1144.7,452.2 -367.5,28.3 -636,-70.6 -452.2,-169.6 183.7,-98.9 805.5,-32.4 1102.2,-284.7 296.8,-252.3 537.1,-407.7 -14.1,-520.8 -551.1,-113 -1540.4,-42.4 -1738.2,381.6 -197.9,423.9 -197.9,423.9 -197.9,423.9"
         style="fill:#6bb7bf;fill-opacity:1;fill-rule:nonzero;stroke:none"
         id="path44" /><path
         d="m 27351.8,8170.55 c 0,0 -2967.7,-960.95 -3306.9,-2035.05 0,0 14.2,-480.5 -282.6,-1031.6 0,0 -457.7,-695 -196.8,-1541 l 117.8,31.6 c 0,0 -102.9,839.4 91.3,1325.5 8,18 19.5,43.6 33.8,75 35.5,69.4 59.4,120.5 74.4,157.4 105.8,217 258.3,499.9 360,559.2 0,0 -664.2,932.7 3109,2458.95"
         style="fill:#599dad;fill-opacity:1;fill-rule:nonzero;stroke:none"
         id="path46" /><path
         d="m 24009.2,1728.3 c 1146.7,0 2076.2,929.5 2076.2,2076.2 h -4152.3 c 0,-1146.7 929.5,-2076.2 2076.1,-2076.2"
         style="fill:#f1a34f;fill-opacity:1;fill-rule:nonzero;stroke:none"
         id="path48" /><path
         d="m 24520.1,1744.2 c -84.4,-10.6 -170.5,-15.9 -258,-15.9 -1146.6,0 -2076,929.6 -2076,2076.2 h 515.8 c 0,-1059.3 793.3,-1933.3 1818.2,-2060.3"
         style="fill:#ffb973;fill-opacity:1;fill-rule:nonzero;stroke:none"
         id="path50" /><path
         d="m 25857.9,1878.8 h -3697.4 c -141.4,0 -256.1,-114.7 -256.1,-256.1 v 0 h 4209.7 v 0 c 0,141.4 -114.7,256.1 -256.2,256.1"
         style="fill:#f1a34f;fill-opacity:1;fill-rule:nonzero;stroke:none"
         id="path52" /><path
         d="m 21864.8,3804.5 v -63.7 h 4267.8 v 63.7 h -4267.8"
         style="fill:#d86713;fill-opacity:1;fill-rule:nonzero;stroke:none"
         id="path54" /><path
         d="m 1640.31,4612.2 c 7.06,-59.6 14.67,-118.7 22.85,-177.1 87.14,66.6 163.28,117.6 163.28,117.6 -55.42,30.5 -121.26,48.8 -186.13,59.5"
         style="fill:#599dad;fill-opacity:1;fill-rule:nonzero;stroke:none"
         id="path56" /><path
         d="m 2795.96,4028.6 c 0,0 -652.27,-129.9 -735.88,-63.6 -83.76,66.4 535.8,220 535.8,220 -129.58,160.4 -675.82,357.4 -675.82,357.4 0,0 -116.04,-126.2 -237.73,-237.6 18.05,-115.7 37.79,-229.1 59.22,-339.7 3.81,-20 7.76,-40 11.71,-59.7 68.53,-343.1 151.29,-658.4 236.17,-937 216.44,-16.8 483.92,93.6 483.92,93.6 -177.1,95.4 -342.77,415.3 -304.84,471.1 37.92,56 390.57,-312.6 460.5,-355.4 69.8,-42.8 280.74,-30.6 447.26,253.6 166.52,284.1 -280.31,597.3 -280.31,597.3"
         style="fill:#599dad;fill-opacity:1;fill-rule:nonzero;stroke:none"
         id="path58" /><path
         d="m 4984.42,7128.8 c -189.78,-47.5 -1407.59,-31.7 -1376.01,-189.8 31.73,-158.2 854.18,-411.3 1312.71,-268.9 0,0 -506.04,-1249.4 -1170.3,-1186.2 -664.26,63.3 -869.84,474.4 -1281.14,506.2 -411.15,31.5 -711.63,-79.1 -506.05,-189.8 205.58,-110.9 901.56,-36.4 1233.62,-318.7 332.19,-282.4 600.94,-456.4 -15.79,-582.9 -443.59,-90.9 -1140.7,-75.7 -1579.64,116.6 -29.75,418.2 -29.18,858.3 16.78,1308.8 8.74,86.4 19.17,173.3 31.44,260.4 42.45,301.8 106.18,607.3 195.57,913.3 101.1,346.69 235.33,693.99 408.91,1037.18 350.1,130.15 733.9,244.5 958.52,222.78 0,0 -774.94,-1312.76 -521.85,-1281.16 252.96,31.8 1122.93,1360.27 1122.93,1360.27 0,0 1281,237.16 1486.57,-521.99 C 5506.42,7555.7 5174.22,7176.2 4984.42,7128.8"
         style="fill:#6bb7bf;fill-opacity:1;fill-rule:nonzero;stroke:none"
         id="path60" /><path
         d="M 4711.74,8076.45 C 2965.16,7369.5 2069.1,6776.4 1618.6,6324.1 c 8.74,86.4 19.17,173.3 31.44,260.4 1047.64,827 2964.69,1460.23 3061.7,1491.95"
         style="fill:#599dad;fill-opacity:1;fill-rule:nonzero;stroke:none"
         id="path62" /><path
         d="m 6183.36,3454.7 c 1.13,0.2 2.81,0.3 4.94,0.4 -1.7,-0.1 -3.24,-0.2 -4.94,-0.4"
         style="fill:#cfe1e5;fill-opacity:1;fill-rule:nonzero;stroke:none"
         id="path64" /><path
         d="m 6193.09,3455.6 c 4.38,0.4 8.61,0.8 12.97,1.1 -5.06,-0.4 -9.3,-0.9 -12.97,-1.1"
         style="fill:#cfe1e5;fill-opacity:1;fill-rule:nonzero;stroke:none"
         id="path66" /><path
         d="M 20776.6,1650.8 H 6408.34 v 0 c -0.4,65.1 52.3,118.1 117.47,118.1 H 20658.4 c 65.3,0 118.2,-52.9 118.2,-118.1 v 0"
         style="fill:#59b5b5;fill-opacity:1;fill-rule:nonzero;stroke:none"
         id="path68" /><path
         d="m 16439.1,6599.7 c 190,990.9 -474.5,1320.23 -505,1559.52 -30.6,239.28 -51,779.45 -448.5,1156.63 -385.8,365.98 98.5,1913.35 -1260,1761.35 54.5,42.1 113.1,53 113.1,53 -104.8,2.5 -165.6,-36.1 -195.8,-64 -15,-2.3 -30.1,-4.8 -45.4,-7.4 0,0 -295,163.1 -702.1,-112.1 -407.1,-275.3 -447.8,-1095.33 -356,-1449.82 91.6,-354.32 -435.1,-639.71 -492.8,-904.8 -57.7,-264.93 176.8,-356.73 -78,-601.36 -254.9,-244.65 -680.9,-662.42 -560.9,-1258.72 40.5,-201.2 181.5,-715.6 554.3,-1156.8 -27.2,-62.8 -51.3,-182 30.7,-352.3 42.5,-88 58.7,-156 61.4,-207.4 80.2,54.7 174.8,140.5 191.3,248.5 0,0 100.6,-192.3 80.3,-367.2 -10.4,-89.9 137.3,-328.4 426.1,-280.7 59.5,9.8 1799.4,308.7 2116.2,449.4 2,-9.9 4.4,-19.3 7.2,-28.2 81.1,-252.4 264.1,-140 313.7,-103.5 141,103.5 75.8,225.6 315.9,292.6 108.3,30.2 177.9,245.3 202.2,345.6 517.7,633.4 190.2,809.9 232.1,1027.7"
         style="fill:#c65447;fill-opacity:1;fill-rule:nonzero;stroke:none"
         id="path70" /><path
         d="m 19591.4,6230.4 c -183.2,95.6 -263,-109.9 -332.5,-141.5 -69.6,-31.7 -272.2,12.5 -359,-120.4 -59.3,-90.6 -167,-166.1 -167,-166.1 v 0 c -560.6,-326.2 -1360.7,-562.5 -1513.6,-570.8 -42.2,-2.3 -155.9,178 -301.9,444.2 -382.6,697 -987.4,1983.71 -1114.6,2127.58 -52.4,59.24 -157.2,113.44 -278.5,160.49 -0.2,0.38 -0.3,0.68 -0.3,0.68 0,0 -1.5,0.36 -4.1,1 -283.3,109.31 -653.9,179.08 -659.5,180.13 -0.1,0 -0.1,0.02 -0.2,0.02 -118,34.88 -201.2,139.92 -209,262.79 -14.4,225.14 -1,484.07 -1,484.07 l -841.8,-18.88 c 24.1,-171.63 7.1,-368.08 -14.3,-528.17 -12.7,-94.75 -81.8,-171.65 -174.5,-195.08 -2.1,-0.4 -449.5,-88.36 -735.3,-219.23 -85.5,-39.15 -156.6,-82.11 -196.9,-127.82 -114.7,-129.65 -617.9,-1188.88 -996.1,-1906.88 0,0 0,0 0,-0.1 -201.4,-382.2 -367.3,-667.7 -420.3,-664.8 -152.9,8.3 -953.1,244.6 -1513.62,570.8 v 0 c 0,0 -107.63,75.5 -166.96,166.3 -86.99,132.7 -289.42,88.5 -358.97,120.2 -69.74,31.6 -149.39,237.1 -332.71,141.5 -65.9,-34.3 50.92,-316 50.92,-316 112.83,-264.9 355.47,-258.8 459.59,-244.6 19.71,2.8 49.07,-10.2 79.79,-29 63.62,-39.2 132.72,-103.4 132.72,-103.4 0,0 782.04,-779 1397.54,-1010.1 2.3,-1.1 4.8,-1.9 7.2,-2.6 5.7,-2.2 11.3,-4.2 16.8,-6.2 105.2,-37.4 205.1,-58.1 294.6,-55 4.8,0.2 9.4,0.5 14,0.6 9.1,0.6 18.3,1.4 27.2,2.5 293.2,35.4 643.8,352.2 971.3,741.2 39.7,47.1 79,95.4 117.9,144.3 175.8,220.9 341.6,455.8 484.4,670.4 104.6,-611.1 284.6,-1349.5 330.5,-1534.8 1.9,-17.6 3.8,-35.2 5.6,-52.7 -224,-366.7 -543.3,-898.4 -543.3,-898.4 0,0 3239.5,-145.3 3209,0 -30.6,145.2 -458.7,871.5 -489.3,963.2 -24.7,74.1 105.5,701.8 232.8,1287.9 129.1,-184.3 270.6,-374 417.1,-550.3 27,-32.4 54.2,-64.3 81.4,-95.8 311,-358.3 638.3,-641.6 914.7,-675 608.5,-73.4 1757.2,1070.8 1757.2,1070.8 l -4.7,9.2 4.7,-9.2 c 0,0 41.6,38.5 90,74.2 30.5,22.3 63.6,43.5 90.8,53.2 1.4,0.4 2.2,0.9 2.7,0.9 h 0.1 c 10.9,3.6 20.6,5.2 28.9,4.1 104.3,-14.2 346.9,-20.3 459.6,244.6 0,0 116.8,281.7 50.9,316"
         style="fill:#ffb27d;fill-opacity:1;fill-rule:nonzero;stroke:none"
         id="path72" /><path
         d="m 17027.5,2780 c -776.8,-650.9 -1890.4,-1005 -1890.4,-1005 0,0 -896.5,-17.2 -1913.1,0 -987.5,16.6 -1953,1233.5 -1953,1233.5 0,0 823.3,10.8 1049.1,203 157.4,134 347.5,356.7 532.2,598.7 132.8,173.9 262.8,357.6 376,525.7 0,0 233.2,-228.5 1181,-203.9 947.7,24.6 1178.5,129.7 1178.5,129.7 0,0 111.9,-137.3 259.5,-311.2 178.1,-209.5 408,-472.2 556.2,-611.4 65.2,-61 624,-559.1 624,-559.1"
         style="fill:#63c1c6;fill-opacity:1;fill-rule:nonzero;stroke:none"
         id="path74" /><path
         d="m 13700.3,10673.9 c 0,0 415.2,411 902.4,-11 0,0 -290.2,61.1 -902.4,11"
         style="fill:#63c1c6;fill-opacity:1;fill-rule:nonzero;stroke:none"
         id="path76" /><path
         d="m 14259.4,10204.2 c 0,0 356.9,6.4 438,-113.1 81.1,-119.53 92,-253.06 132.9,-320.44 40.9,-67.35 33.9,-142.83 33.9,-142.83 0,0 307.2,786.37 -402,629.77 -51.2,-11.3 -202.8,-53.4 -202.8,-53.4"
         style="fill:#b5453c;fill-opacity:1;fill-rule:nonzero;stroke:none"
         id="path78" /><path
         d="m 9834.38,5383 c 3.78,1.2 7.71,2.4 11.66,3.5 -2.06,-0.7 -6,-2.1 -11.66,-3.5"
         style="fill:#5153a0;fill-opacity:1;fill-rule:nonzero;stroke:none"
         id="path80" /><path
         d="m 17027.5,2780 c -776.8,-650.9 -1890.4,-1005 -1890.4,-1005 0,0 -896.5,-17.2 -1913.1,0 -987.5,16.6 -1953,1233.5 -1953,1233.5 0,0 823.3,10.8 1049.1,203 157.4,134 347.5,356.7 532.2,598.7 42.3,-26.8 934.7,-586.7 1463.3,-559.2 537.2,27.9 1516.3,689.2 1531.7,699.5 178.1,-209.5 408,-472.2 556.2,-611.4 65.2,-61 624,-559.1 624,-559.1"
         style="fill:#59b5b5;fill-opacity:1;fill-rule:nonzero;stroke:none"
         id="path82" /><path
         d="m 17134.5,2866 c -236.6,-204.8 -937.7,-429.8 -1598.5,-607.9 -185.3,-49.9 -367.6,-96 -535.4,-137.2 -151.5,-47.2 -459,-144.8 -788.5,-259.4 -464.9,-161.9 -668.3,-84.6 -898.7,-43.9 -230.4,40.7 -490.4,-120.5 -831.7,4.3 -341.2,124.7 -255,796.8 -255,796.8 115.6,75.9 564.9,97.7 869.2,-120.8 304.1,-218.3 711.8,-177.6 711.8,-177.6 15.6,-1.7 52.8,17 103.5,48.8 0,0 295.9,173 841.2,607.2 175.4,139.8 376.8,306.6 602.4,503.4 430.2,375.1 801.3,868.7 1230,959.7 730.5,155 990.3,-128.8 990.3,-128.8 0,0 180.3,-907.5 -440.6,-1444.6"
         style="fill:#f2a672;fill-opacity:1;fill-rule:nonzero;stroke:none"
         id="path84" /><path
         d="m 15536,2258.1 c -185.3,-49.9 -367.6,-96 -535.4,-137.2 -151.5,-47.2 -459,-144.8 -788.5,-259.4 -464.9,-161.9 -668.3,-84.6 -898.7,-43.9 -230.4,40.7 -490.4,-120.5 -831.7,4.3 -341.2,124.7 -255,796.8 -255,796.8 115.6,75.9 564.9,97.7 869.2,-120.8 304.1,-218.3 711.8,-177.6 711.8,-177.6 15.6,-1.7 52.8,17 103.5,48.8 0,0 295.9,173 841.2,607.2 103.7,-203.3 312.7,-492.3 712.8,-680.2 25.9,-12 49.4,-24.7 70.8,-38"
         style="fill:#abbfdb;fill-opacity:1;fill-rule:nonzero;stroke:none"
         id="path86" /><path
         d="m 16004.8,2457.9 c 0,0 -15.5,-585.3 -230.3,-655 -295.1,-95.7 -527,57.7 -770.6,13 -243.7,-44.6 -441.2,-108.2 -932,63.3 -325.8,113.9 -631.4,211.8 -800,264.8 -82.6,22.2 -168.2,45.6 -255.4,70.2 -652.1,183.9 -1394,429.9 -1631.3,651.8 -574.1,537.1 -354.1,1490.2 -354.1,1490.2 0,0 186.8,238.2 862.5,83.2 396.4,-91 805.8,-484 1202,-857 164.3,-154.7 320.1,-298 462.9,-427.2 497.7,-449.9 838.6,-729.3 838.6,-729.3 l -1.5,-2.9 c 51.8,-32.5 89.7,-51.3 105.8,-49.7 0,0 259.3,-102.9 709.9,48.7 314.3,105.8 671.8,116.6 793.5,35.9"
         style="fill:#ffb27d;fill-opacity:1;fill-rule:nonzero;stroke:none"
         id="path88" /><path
         d="m 13820.1,8692.09 c 0,0 166.2,-385.34 439.3,-362.42 273.2,22.94 385.4,371.04 385.4,371.04 l -824.7,-8.62"
         style="fill:#e8945b;fill-opacity:1;fill-rule:nonzero;stroke:none"
         id="path90" /><path
         d="m 13542.1,9157.74 c 0,0 -130.2,271.87 -210.2,588.23 -57.2,225.86 -1.8,1082.33 859.2,1021.63 0,0 249.3,-6.6 493.3,-146.9 194,-111.7 480.5,-362.2 235.3,-1123.79 l -59.6,-255.57 -1318,-83.6"
         style="fill:#c65447;fill-opacity:1;fill-rule:nonzero;stroke:none"
         id="path92" /><path
         d="m 14745.8,8794.42 c -222.9,-211.89 -499.9,-494.33 -1093.7,31.22 -116.2,102.83 -156.9,313.12 -163,539.43 -7.4,267.87 -22.3,379.31 8.1,533.64 36.1,184.59 194.3,267.59 522.2,295.19 602.1,50.5 850.5,-83.5 864.7,-384.6 30.7,-651.56 88.5,-799.37 -138.3,-1014.88"
         style="fill:#ffb27d;fill-opacity:1;fill-rule:nonzero;stroke:none"
         id="path94" /><path
         d="m 13820.1,10454.8 c -345.6,-7.6 -525.9,-863.78 -365.4,-826.97 160.5,36.82 477.8,437.17 477.8,437.17 -26.8,-206.43 -263.7,-397.54 -263.7,-397.54 366.9,137.61 527.4,536.84 527.4,536.84 0,0 -30.6,258.2 -376.1,250.5"
         style="fill:#c65447;fill-opacity:1;fill-rule:nonzero;stroke:none"
         id="path96" /><path
         d="m 14846,10240.8 c -168.2,114.7 -649.8,-36.5 -649.8,-36.5 0,0 168.2,-1.7 237,-124 68.8,-122.34 292.6,-471.07 486.5,-583.39 0,0 94.5,629.19 -73.7,743.89"
         style="fill:#c65447;fill-opacity:1;fill-rule:nonzero;stroke:none"
         id="path98" /><path
         d="m 14376.4,4586.9 c -27.6,0 -49.9,-40.5 -49.9,-90.5 0,-49.9 22.3,-90.4 49.9,-90.4 27.5,0 49.8,40.5 49.8,90.4 0,50 -22.3,90.5 -49.8,90.5"
         style="fill:#f2a672;fill-opacity:1;fill-rule:nonzero;stroke:none"
         id="path100" /><path
         d="m 18958.4,5611.6 c -48.4,-35.7 -90,-74.2 -90,-74.2 0,0 -1148.7,-1144.2 -1757.2,-1070.8 -276.4,33.4 -603.7,316.7 -914.7,675 -27.2,31.5 -54.4,63.4 -81.4,95.8 l 84,147.1 430.1,-46.9 c 0,0 375.1,-330.3 507.6,-564.7 106.5,-188.5 1259.8,499.8 1723.8,779.8 37.4,22.5 70.3,42.3 97.8,58.9"
         style="fill:#f2a672;fill-opacity:1;fill-rule:nonzero;stroke:none"
         id="path102" /><path
         d="m 19540.5,5914.4 c -112.7,-264.9 -355.3,-258.8 -459.6,-244.6 -8.3,1.1 -18,-0.5 -28.9,-4.1 h -0.1 c -0.5,0 -1.3,-0.5 -2.7,-0.9 0,0 -52.2,129.9 253.6,214 305.7,84.1 288.6,351.6 288.6,351.6 65.9,-34.3 -50.9,-316 -50.9,-316"
         style="fill:#f2a672;fill-opacity:1;fill-rule:nonzero;stroke:none"
         id="path104" /><path
         d="m 12468.3,5352.1 c -38.9,-48.9 -78.2,-97.2 -117.9,-144.3 -327.5,-389 -678.1,-705.8 -971.3,-741.2 -8.9,-1.1 -18.1,-1.9 -27.2,-2.5 -4.6,-0.1 -9.2,-0.4 -14,-0.6 -87.1,-2.4 -187.1,18 -294.6,55 -5.5,2 -11.1,4 -16.8,6.2 -2.4,0.7 -4.9,1.5 -7.2,2.6 -615.5,231.1 -1397.54,1010.1 -1397.54,1010.1 0,0 -69.1,64.2 -132.72,103.4 43.74,-21.1 93.43,-46.2 147.55,-74.3 545.81,-282.7 1555.51,-867.7 1751.51,-723.4 275.2,202.9 642.1,694.3 642.1,694.3 l 438.1,-185.3"
         style="fill:#f2a672;fill-opacity:1;fill-rule:nonzero;stroke:none"
         id="path106" /><path
         d="m 9489.04,5640.8 c -30.72,18.8 -60.08,31.8 -79.79,29 -104.12,-14.2 -346.76,-20.3 -459.59,244.6 0,0 -116.82,281.7 -50.92,316 0,0 17.74,-280.7 221.55,-333.9 198.9,-52.1 360.97,-246.4 368.75,-255.7"
         style="fill:#f2a672;fill-opacity:1;fill-rule:nonzero;stroke:none"
         id="path108" /><path
         d="m 15802.8,7803.38 c -52.4,59.25 -157.2,113.48 -278.6,160.52 -0.1,0.27 -0.1,0.63 -0.1,0.63 0,0 -418.2,-503.33 -1291.6,-510.93 -873.5,-7.7 -1339.2,481.58 -1339.2,481.58 l -0.5,-16.08 -8.5,12.1 c -85.5,-39.15 -156.6,-82.11 -196.9,-127.82 -114.7,-129.65 -617.9,-1188.88 -996.1,-1906.88 0,0 0,0 0,-0.1 1,-8.1 34.4,-255.6 257.3,-464.2 v -0.1 c 95.2,-89.2 225.1,-171.1 401.8,-224.3 208.4,247.2 407.1,523.8 576.1,775.6 6.5,9.7 12.9,19.3 19.3,28.9 l 17.2,-81.4 180,-848.8 c 409.7,-130.9 770.1,-192.9 1078.9,-213.4 43.7,-2.9 86.4,-5.1 128,-6.3 h 0.1 c 785,-24.8 1199.9,219.7 1199.9,219.7 0,0 87,339.6 158.9,677.9 0.6,3.2 1.3,6.4 2,9.5 149.4,-212.5 315.1,-431.4 485.7,-627.9 181,39.6 322.7,112.2 432.7,196 144.9,110.2 235.1,239.6 288.2,338.2 -382.6,697 -987.4,1983.71 -1114.6,2127.58"
         style="fill:#79c8cc;fill-opacity:1;fill-rule:nonzero;stroke:none"
         id="path110" /><path
         d="m 11948.6,5432.2 v -0.1 c 95.2,-89.2 225.1,-171.1 401.8,-224.3 208.4,247.2 407.1,523.8 576.1,775.6 -163.8,17.9 -977.9,-551.2 -977.9,-551.2"
         style="fill:#63c1c6;fill-opacity:1;fill-rule:nonzero;stroke:none"
         id="path112" /><path
         d="m 15708.8,5772.4 c 150,-213.4 316.3,-433.4 487.7,-630.8 181,39.6 322.7,112.2 432.7,196 0,0 -740,438.8 -920.4,434.8"
         style="fill:#63c1c6;fill-opacity:1;fill-rule:nonzero;stroke:none"
         id="path114" /><path
         d="m 12963,5930.9 180,-848.8 c 409.7,-130.9 770.1,-192.9 1078.9,-213.4 -531.7,84.1 -1110.3,852.9 -1258.9,1062.2"
         style="fill:#63c1c6;fill-opacity:1;fill-rule:nonzero;stroke:none"
         id="path116" /><path
         d="m 14350,4862.4 c 785,-24.8 1199.9,219.7 1199.9,219.7 0,0 87,339.6 158.9,677.9 v 12.4 c 0,0 -712.5,-866.4 -1358.8,-910"
         style="fill:#63c1c6;fill-opacity:1;fill-rule:nonzero;stroke:none"
         id="path118" /><path
         d="m 16004.8,2457.9 c 0,0 -15.5,-585.3 -230.3,-655 -295.1,-95.7 -527,57.7 -770.6,13 -243.7,-44.6 -441.2,-108.2 -932,63.3 -325.8,113.9 -631.4,211.8 -800,264.8 -82.6,22.2 -168.2,45.6 -255.4,70.2 126.9,105.8 443.6,415.7 542,941 497.7,-449.9 838.6,-729.3 838.6,-729.3 l -1.5,-2.9 c 51.8,-32.5 89.7,-51.3 105.8,-49.7 0,0 259.3,-102.9 709.9,48.7 314.3,105.8 671.8,116.6 793.5,35.9"
         style="fill:#e9f3fe;fill-opacity:1;fill-rule:nonzero;stroke:none"
         id="path120" /><path
         d="M 27459.4,1537.5 H 1619.11 c -20.73,0 -37.69,17 -37.69,37.7 v 37.9 c 0,20.7 16.96,37.7 37.69,37.7 H 27459.4 c 20.7,0 37.7,-17 37.7,-37.7 v -37.9 c 0,-20.7 -17,-37.7 -37.7,-37.7"
         style="fill:#2e3552;fill-opacity:1;fill-rule:nonzero;stroke:none"
         id="path122" /><path
         d="m 15659.3,7407.9 c 50,225.13 -227.7,377.16 -391.1,214.41 -208.4,-207.61 -558.9,-442.21 -1103.1,-492.41 -1018.9,-94 -232.7,-444 -75.9,-560.4 156.8,-116.4 288.4,-282 589.2,-156.9 300.8,125.1 535.8,425.9 733.2,529.3 94.8,49.7 200.1,252.1 247.7,466"
         style="fill:#63c1c6;fill-opacity:1;fill-rule:nonzero;stroke:none"
         id="path124" /></g></g></svg>
